<svg width="48.000000" height="219.999878" viewBox="0 0 48 220" fill="none" xmlns="http://www.w3.org/2000/svg" xmlns:xlink="http://www.w3.org/1999/xlink">
	<desc>
			Created with Pixso.
	</desc>
	<defs/>
	<path id="Ellipse 4" d="M0 0C0 3.15173 0.620728 6.27258 1.8269 9.18439C3.03296 12.0962 4.80078 14.7419 7.02942 16.9706C9.25806 19.1992 11.9038 20.967 14.8156 22.1731C17.7274 23.3792 20.8483 24 24 24C27.1517 24 30.2726 23.3792 33.1844 22.1731C36.0962 20.967 38.7419 19.1992 40.9706 16.9706C43.1992 14.7419 44.967 12.0962 46.1731 9.18439C47.3793 6.27258 48 3.15173 48 0L0 0Z" fill="#FFFFFF" fill-opacity="1.000000" fill-rule="nonzero"/>
	<path id="Ellipse 3" d="M48 220C48 216.848 47.3793 213.727 46.1731 210.815C44.967 207.904 43.1992 205.258 40.9706 203.029C38.7419 200.801 36.0962 199.033 33.1844 197.827C30.2726 196.621 27.1517 196 24 196C20.8483 196 17.7274 196.621 14.8156 197.827C11.9038 199.033 9.25806 200.801 7.02942 203.029C4.80078 205.258 3.03296 207.904 1.8269 210.815C0.620728 213.727 0 216.848 0 220L48 220Z" fill="#FFFFFF" fill-opacity="1.000000" fill-rule="nonzero"/>
	<line id="Line 1" x1="25.000000" y1="32.000000" x2="25.000000" y2="188.000000" stroke="#FFFFFF" stroke-opacity="1.000000" stroke-width="2.000000" stroke-dasharray="5.000000,5.000000"/>
</svg>
